<svg version="1.1" id="Layer_1" xmlns="http://www.w3.org/2000/svg" xmlns:xlink="http://www.w3.org/1999/xlink" x="0px" y="0px"
	 width="100%" viewBox="0 0 1254 1254" enable-background="new 0 0 1254 1254" xml:space="preserve">
<path fill="#FEFDFD" opacity="1.000000" stroke="none" 
	d="
M1255.000000,482.000000 
	C1255.000000,740.000000 1255.000000,997.500000 1255.000000,1255.000000 
	C837.000000,1255.000000 419.000000,1255.000000 1.000000,1255.000000 
	C1.000000,837.000000 1.000000,419.000000 1.000000,1.000000 
	C419.000000,1.000000 837.000000,1.000000 1255.000000,1.000000 
	C1255.000000,161.166672 1255.000000,321.333344 1255.000000,482.000000 
M74.585617,835.240662 
	C74.617256,841.147888 74.648895,847.055054 74.380081,853.856567 
	C74.472687,859.581787 74.565292,865.306946 74.405716,871.933472 
	C74.390556,900.701965 74.359924,929.470520 74.375893,958.239014 
	C74.378471,962.879883 74.588448,967.520569 74.447052,973.051208 
	C75.434364,983.655579 75.694229,994.387085 77.521599,1004.844666 
	C95.675049,1108.733276 188.704651,1186.441040 294.372925,1186.420166 
	C485.681519,1186.382202 676.990112,1186.449341 868.298706,1186.408203 
	C903.789246,1186.400513 939.368286,1187.624878 974.751160,1185.585693 
	C1040.221924,1181.812256 1093.642456,1153.043091 1134.062744,1101.472412 
	C1165.329712,1061.579712 1180.426880,1015.790588 1180.323608,964.934387 
	C1180.143921,876.446106 1180.298096,787.957214 1180.267334,699.468567 
	C1180.258301,673.644348 1180.097656,647.820129 1180.198486,621.075012 
	C1180.202271,585.339844 1180.226196,549.604614 1180.199463,513.869446 
	C1180.188843,499.581024 1180.066528,485.292633 1180.066528,470.068542 
	C1180.079834,407.902771 1180.341553,345.735291 1179.922485,283.572449 
	C1179.824341,269.031036 1178.527832,254.299255 1175.873291,240.009766 
	C1166.916504,191.794220 1144.284668,150.885849 1107.130493,118.623505 
	C1067.426147,84.146721 1021.108276,65.996208 968.382080,65.956207 
	C741.216980,65.783859 514.051575,65.831604 286.886536,66.030640 
	C274.492371,66.041496 261.904205,67.123680 249.741348,69.455002 
	C201.991913,78.607368 161.399826,100.857155 128.922943,137.421387 
	C106.280312,162.913681 90.818314,192.209747 81.999252,225.059067 
	C77.675781,241.163177 74.980347,257.528778 74.869003,274.260345 
	C74.762787,290.221680 74.609718,306.182739 74.268829,323.016907 
	C74.338211,326.628998 74.407600,330.241119 74.234924,334.778717 
	C74.193672,335.275543 74.116333,335.772400 74.116287,336.269226 
	C74.109543,406.116272 74.102760,475.963318 74.147865,545.810364 
	C74.148766,547.204590 74.759315,548.598389 74.864014,550.801758 
	C74.629707,552.936951 74.191010,555.072021 74.190514,557.207275 
	C74.169487,647.819031 74.183380,738.430725 74.230812,829.042480 
	C74.231750,830.834961 74.682220,832.627136 74.585617,835.240662 
z"/>
<path fill="#D01118" opacity="1.000000" stroke="none" 
	d="
M74.657898,871.032166 
	C74.565292,865.306946 74.472687,859.581787 74.856094,853.238525 
	C75.315956,846.746887 75.299797,840.873413 75.409607,834.655640 
	C76.807220,832.993958 78.038406,831.634399 79.356461,830.365112 
	C115.533836,795.523682 156.642944,768.235901 203.482880,749.888672 
	C260.487183,727.560059 319.073425,720.906921 379.415253,732.907104 
	C388.694702,734.752441 397.926636,736.836792 407.442261,739.025635 
	C423.815094,766.016602 443.327026,789.866638 467.849609,809.449768 
	C511.022339,843.926392 560.021790,863.761963 615.267273,866.738464 
	C671.476074,869.766846 723.037720,855.052979 769.756897,823.568848 
	C774.724304,820.221191 779.669495,816.840515 785.006592,813.580444 
	C819.532349,804.000610 851.935974,790.032410 882.349121,771.926514 
	C915.532593,752.171326 948.034607,731.268433 980.768677,710.762207 
	C1020.339966,685.972839 1060.886719,663.044922 1104.446655,645.890442 
	C1129.074463,636.191650 1154.117676,627.739502 1180.006470,621.995911 
	C1180.097656,647.820129 1180.258301,673.644348 1180.267334,699.468567 
	C1180.298096,787.957214 1180.143921,876.446106 1180.323608,964.934387 
	C1180.426880,1015.790588 1165.329712,1061.579712 1134.062744,1101.472412 
	C1093.642456,1153.043091 1040.221924,1181.812256 974.751160,1185.585693 
	C939.368286,1187.624878 903.789246,1186.400513 868.298706,1186.408203 
	C676.990112,1186.449341 485.681519,1186.382202 294.372925,1186.420166 
	C188.704651,1186.441040 95.675049,1108.733276 77.521599,1004.844666 
	C75.694229,994.387085 75.434364,983.655579 74.918060,972.332153 
	C75.589897,970.824219 75.965538,970.035522 75.966354,969.246521 
	C75.999016,937.638428 76.011650,906.030273 75.944252,874.422302 
	C75.941833,873.291321 75.105553,872.162170 74.657898,871.032166 
M929.118652,1009.619324 
	C930.222534,1013.617065 933.163940,1015.141541 936.986633,1015.247803 
	C940.812256,1015.354065 944.644653,1015.319031 948.471985,1015.243103 
	C956.854187,1015.076904 959.067505,1012.832092 959.171509,1004.476135 
	C959.320618,992.495483 958.833313,980.466919 959.750854,968.546021 
	C960.823120,954.614441 969.271790,948.487976 982.910217,950.689636 
	C987.446655,951.421875 990.193359,949.819763 990.920044,945.486938 
	C991.659058,941.080261 992.066406,936.581116 992.162537,932.112610 
	C992.292725,926.067688 989.800659,923.228699 983.807495,922.301392 
	C974.743408,920.898804 967.435547,923.983337 962.031250,931.405334 
	C960.548828,933.441223 959.257324,935.616028 957.128845,938.874146 
	C957.128845,935.995178 957.166077,934.550903 957.122498,933.108948 
	C956.912720,926.167175 954.741638,923.769287 947.922363,923.318542 
	C944.605835,923.099304 941.256653,923.106323 937.936462,923.280701 
	C933.969177,923.489075 930.392151,924.631409 927.814941,929.235229 
	C927.548523,930.165894 927.051025,931.096191 927.049377,932.027344 
	C927.005249,956.486877 926.987854,980.946594 927.084961,1005.405762 
	C927.089783,1006.598083 928.174988,1007.786133 929.118652,1009.619324 
M399.281189,888.964783 
	C397.426453,891.317383 394.794830,893.415039 393.917633,896.088379 
	C392.870880,899.278503 393.069122,902.970337 393.184235,906.429565 
	C393.443542,914.221313 395.789703,916.345886 403.599915,916.361023 
	C411.017212,916.375366 418.434540,916.364136 426.032074,916.364136 
	C426.032074,919.722229 426.032745,922.379272 426.031921,925.036255 
	C426.023773,951.343872 426.002289,977.651550 426.015686,1003.959167 
	C426.019287,1011.091431 428.715881,1014.046936 435.774414,1014.383240 
	C439.758026,1014.573059 443.764038,1014.380981 447.757141,1014.264343 
	C456.577911,1014.006714 458.937744,1011.575684 458.945007,1002.775146 
	C458.967590,975.468628 458.969269,948.162170 459.000824,920.855652 
	C459.002472,919.434021 459.205322,918.012634 459.334625,916.329346 
	C464.861755,916.329346 470.001801,916.301697 475.141449,916.334473 
	C489.795044,916.428101 491.323822,914.889954 491.205750,900.064819 
	C491.130463,890.611267 488.722961,888.181274 479.469116,888.174438 
	C478.311127,888.173584 477.153168,888.048889 475.403351,887.394104 
	C474.924683,887.273193 474.446136,887.046875 473.967316,887.046387 
	C450.520111,887.021606 427.072815,886.991699 403.625916,887.074402 
	C402.320679,887.079041 401.018799,888.032227 399.281189,888.964783 
M825.543396,937.463379 
	C825.684448,924.035156 825.851013,910.607117 825.903503,897.178528 
	C825.906677,896.365784 825.002014,895.549438 824.112793,894.272034 
	C821.763794,892.438416 819.660278,889.719604 817.006836,888.983765 
	C813.261841,887.945251 809.110291,888.210022 805.132324,888.206299 
	C794.467407,888.196472 792.183044,890.522095 792.186707,900.987549 
	C792.190918,913.079773 792.187744,925.171936 792.187744,937.348145 
	C779.167358,937.348145 766.662842,937.348145 753.988220,937.348145 
	C753.988220,923.936584 754.018921,910.967468 753.974182,897.998718 
	C753.954224,892.227600 752.227356,889.655762 746.853333,889.040283 
	C741.281982,888.402283 735.607605,888.502686 729.981140,888.560059 
	C725.589966,888.604797 722.428162,890.799255 720.080627,895.240723 
	C719.726318,896.098389 719.063477,896.955566 719.062134,897.813782 
	C719.007996,933.054810 718.995422,968.296021 719.090454,1003.536804 
	C719.093567,1004.688904 720.269897,1005.837769 721.239380,1007.624939 
	C722.429504,1012.184631 725.621338,1014.106873 730.087219,1014.149780 
	C734.913452,1014.196045 739.747986,1014.241882 744.566528,1014.020325 
	C751.225647,1013.714111 753.865234,1010.944641 753.949219,1004.322327 
	C754.035767,997.498413 753.960693,990.672363 753.958679,983.847290 
	C753.956909,977.589294 753.958252,971.331299 753.958252,965.146362 
	C767.092468,965.146362 779.483704,965.146362 792.018799,965.146362 
	C792.082703,966.478333 792.169739,967.457031 792.170532,968.435913 
	C792.180725,980.421326 792.115845,992.407166 792.202942,1004.391968 
	C792.252991,1011.285706 795.073181,1014.105347 801.889587,1014.234009 
	C806.214844,1014.315613 810.544250,1014.137878 814.871826,1014.138916 
	C819.271912,1014.139893 822.553711,1012.377686 825.204651,1007.751465 
	C825.469116,1006.654297 825.961609,1005.557678 825.964172,1004.459900 
	C826.010010,984.845032 826.015381,965.229980 825.950134,945.615234 
	C825.946106,944.400635 825.286377,943.188171 824.690247,941.208252 
	C824.765930,940.149414 824.841614,939.090637 825.543396,937.463379 
M893.353394,1080.089966 
	C924.788147,1084.733643 956.256714,1089.162354 987.643799,1094.108521 
	C1004.235718,1096.723145 1020.672607,1100.313354 1037.222168,1103.220215 
	C1038.695312,1103.479004 1040.484131,1101.940430 1042.126343,1101.236572 
	C1041.175537,1099.691040 1040.583496,1097.375366 1039.210693,1096.735718 
	C1033.791626,1094.210938 1028.208008,1091.974365 1022.541138,1090.057129 
	C986.809998,1077.969238 949.974670,1070.463013 912.899048,1064.046875 
	C871.555847,1056.892212 829.964539,1051.468628 788.087219,1048.927368 
	C743.726501,1046.235229 699.327332,1043.444458 654.909851,1042.643921 
	C616.143677,1041.945068 577.300903,1043.303833 538.543884,1044.965454 
	C505.804871,1046.369141 473.100311,1049.063965 440.452545,1051.990845 
	C395.363129,1056.033325 350.549133,1062.391235 306.138550,1071.194336 
	C276.594116,1077.050781 247.223068,1083.811401 219.081329,1094.916870 
	C216.161591,1096.069092 211.525406,1096.775146 213.082291,1101.256714 
	C214.496597,1105.328003 218.571793,1103.054199 221.413132,1102.535278 
	C237.947235,1099.517212 254.376480,1095.865967 270.969604,1093.240356 
	C329.983490,1083.902466 389.250824,1076.659668 448.811066,1071.682373 
	C499.938904,1067.409668 551.135986,1064.599365 602.416382,1064.307739 
	C642.048279,1064.082275 681.694702,1065.141968 721.323059,1066.109741 
	C741.619507,1066.605225 761.938049,1067.598022 782.162231,1069.343628 
	C818.960144,1072.519775 855.695068,1076.424927 893.353394,1080.089966 
M179.540115,977.243408 
	C179.537567,986.734497 179.454590,996.226501 179.557434,1005.716492 
	C179.642654,1013.578918 182.561798,1016.679810 190.419800,1016.814392 
	C203.570465,1017.039612 216.733948,1017.268127 229.877472,1016.929688 
	C241.276657,1016.636169 252.436096,1014.664062 262.210968,1008.154236 
	C273.874176,1000.386719 277.821381,988.943848 276.406464,975.640137 
	C275.064667,963.023438 267.901520,954.631104 255.716019,950.696228 
	C254.870026,950.423096 254.070267,950.006836 252.656601,949.404907 
	C265.942078,943.531555 272.108154,933.655151 271.319458,919.893921 
	C270.394135,903.747986 261.058685,893.874756 243.354507,890.182983 
	C225.674500,886.496155 207.900589,887.899170 190.169586,889.997009 
	C181.570663,891.014343 179.552612,893.363708 179.549332,901.871033 
	C179.539780,926.681641 179.540161,951.492249 179.540115,977.243408 
M529.064148,895.708618 
	C528.889709,887.492981 527.001648,884.923523 519.767212,884.354004 
	C515.311768,884.003235 510.756805,884.138672 506.311157,884.634766 
	C500.355652,885.299194 498.259796,887.956421 498.244049,893.945679 
	C498.218231,903.773254 498.269379,913.600952 498.269409,923.428589 
	C498.269531,950.413269 498.238586,977.397949 498.268860,1004.382629 
	C498.276581,1011.290405 501.051392,1014.037109 507.943542,1014.162170 
	C511.773499,1014.231750 515.608032,1014.289673 519.435852,1014.184326 
	C526.576416,1013.987854 529.079834,1011.487915 529.108521,1004.452148 
	C529.164124,990.793457 529.102478,977.134277 529.161377,963.475647 
	C529.170593,961.329590 529.296692,959.119507 529.817078,957.051880 
	C531.557312,950.137634 538.002991,945.998535 545.458374,946.793579 
	C551.302490,947.416809 554.255310,951.223572 554.814453,958.931519 
	C554.934814,960.590515 554.951538,962.259644 554.952026,963.924133 
	C554.955994,976.916748 554.929749,989.909302 554.942566,1002.901917 
	C554.951050,1011.542969 557.547424,1014.119324 566.318848,1014.167297 
	C569.982117,1014.187378 573.655640,1014.223083 577.307495,1013.987915 
	C582.654846,1013.643738 585.619873,1011.140259 585.635986,1005.938843 
	C585.695618,986.624878 586.231323,967.259766 585.043152,948.009216 
	C583.796631,927.812195 567.251465,916.598816 547.716675,922.049316 
	C541.145081,923.882874 535.238586,928.100403 529.063354,931.210571 
	C529.063354,920.241577 529.063354,908.450928 529.064148,895.708618 
M992.188354,966.807983 
	C992.178955,968.473206 992.082703,970.143188 992.174377,971.802795 
	C992.731628,981.889771 994.408752,991.683594 1000.443054,1000.151001 
	C1008.855469,1011.955444 1021.024109,1016.334534 1034.867065,1017.548706 
	C1057.827148,1019.562622 1077.151489,1007.244385 1082.378174,985.955383 
	C1084.279175,978.212097 1084.527832,969.799927 1084.035156,961.784851 
	C1082.885376,943.076904 1071.201050,928.982971 1053.737061,923.766602 
	C1034.777222,918.103394 1013.134399,923.906128 1002.168457,937.607056 
	C995.553406,945.871643 993.046143,955.582397 992.188354,966.807983 
M354.115479,1012.758728 
	C356.045715,1011.786621 358.063477,1010.955139 359.890503,1009.817261 
	C366.765900,1005.535522 368.428040,999.556274 364.898834,992.240540 
	C362.603577,987.482666 360.234650,986.685730 355.396423,988.819702 
	C346.401886,992.786804 337.121429,995.157288 327.245941,992.912598 
	C319.105438,991.062256 314.559235,985.816895 314.175781,977.912231 
	C318.002930,977.912231 321.844910,978.203064 325.628021,977.854614 
	C334.884613,977.002136 344.210480,976.371887 353.325836,974.672668 
	C361.626556,973.125366 366.867432,967.524048 367.766296,958.899109 
	C368.941498,947.622009 365.653168,937.683044 356.946228,930.166809 
	C339.226990,914.870911 300.169769,916.931824 287.766357,945.209717 
	C282.494720,957.228271 281.451233,969.576294 283.975006,982.338623 
	C287.614929,1000.745300 300.049652,1012.929016 318.398773,1015.856873 
	C330.267120,1017.750671 341.962372,1016.935913 354.115479,1012.758728 
M623.244385,923.703857 
	C608.830444,928.665405 600.077087,938.875977 596.198669,953.360962 
	C595.130859,957.348816 594.515259,961.553528 594.386841,965.680359 
	C593.849731,982.944763 597.251831,999.119202 613.023010,1008.859253 
	C631.715271,1020.403320 651.470032,1019.067627 670.708008,1009.710266 
	C677.763733,1006.278259 679.274475,1000.676086 676.860840,993.238708 
	C674.990662,987.476013 671.849548,986.070618 666.376770,988.559021 
	C657.862793,992.430176 649.020325,994.491760 639.670654,992.788757 
	C631.280945,991.260498 626.206726,985.748962 625.840332,977.843994 
	C630.497559,977.843994 635.172241,978.195557 639.774414,977.767334 
	C648.198975,976.983582 656.698853,976.291321 664.945312,974.524597 
	C672.490417,972.908142 677.317993,967.668030 678.900146,959.833801 
	C681.413147,947.389465 675.485901,933.671814 664.490417,927.183960 
	C651.623413,919.591614 637.993530,919.223389 623.244385,923.703857 
M836.202087,953.917969 
	C835.604431,957.863708 834.643555,961.793640 834.471802,965.757812 
	C833.711670,983.302795 837.607910,999.182739 853.415833,1009.282654 
	C868.645203,1019.012878 885.331482,1018.629211 902.071777,1013.862854 
	C905.966797,1012.753845 909.761414,1010.594299 913.032227,1008.154053 
	C917.981262,1004.461792 918.583069,997.290039 915.103882,991.368591 
	C912.587585,987.085999 910.949219,986.958069 903.179688,990.068726 
	C894.297180,993.624939 885.213806,995.151733 875.882202,991.940369 
	C869.435608,989.721924 866.355408,984.853882 865.164551,977.835388 
	C871.869751,977.835388 878.052063,978.213745 884.167297,977.735291 
	C891.104370,977.192444 898.110962,976.415283 904.852905,974.775696 
	C914.037109,972.542175 918.153992,967.057800 919.089172,957.728699 
	C920.363159,945.020874 913.384216,932.081787 902.162292,926.110107 
	C882.110901,915.439758 845.436279,919.794678 836.202087,953.917969 
z"/>
<path fill="#FDB1B1" opacity="1.000000" stroke="none" 
	d="
M74.477249,322.143921 
	C74.609718,306.182739 74.762787,290.221680 74.869003,274.260345 
	C74.980347,257.528778 77.675781,241.163177 81.999252,225.059067 
	C90.818314,192.209747 106.280312,162.913681 128.922943,137.421387 
	C161.399826,100.857155 201.991913,78.607368 249.741348,69.455002 
	C261.904205,67.123680 274.492371,66.041496 286.886536,66.030640 
	C514.051575,65.831604 741.216980,65.783859 968.382080,65.956207 
	C1021.108276,65.996208 1067.426147,84.146721 1107.130493,118.623505 
	C1144.284668,150.885849 1166.916504,191.794220 1175.873291,240.009766 
	C1178.527832,254.299255 1179.824341,269.031036 1179.922485,283.572449 
	C1180.341553,345.735291 1180.079834,407.902771 1179.652954,470.585815 
	C1148.648315,480.036224 1119.538208,492.641541 1091.182739,507.017334 
	C1055.968872,524.870239 1023.507141,547.309814 990.201172,568.323364 
	C956.687561,589.467957 921.446655,606.670410 883.029907,616.579224 
	C883.738342,595.435059 882.211548,574.874084 878.740967,554.537231 
	C873.791077,525.532227 864.387573,497.891998 851.675537,471.349701 
	C831.417480,429.051697 804.107239,391.316864 775.646790,354.396118 
	C742.029358,310.785339 707.575623,267.750000 679.015259,220.565765 
	C664.046570,195.836136 650.982666,169.949646 637.203308,144.507172 
	C634.187805,138.939346 631.788635,133.037781 629.099304,127.276398 
	C620.269104,145.139603 611.989929,162.563446 603.122009,179.682312 
	C586.479370,211.809692 566.731079,242.065979 545.220215,271.069672 
	C519.471558,305.787201 492.690704,339.737579 466.507050,374.134521 
	C444.516388,403.023254 423.627930,432.675720 407.383606,465.274017 
	C401.238678,477.605377 396.007538,490.392090 390.004578,502.872498 
	C378.750671,497.838989 367.960876,492.644623 356.931610,488.021667 
	C331.330536,477.290894 304.477386,471.206451 276.906647,469.279907 
	C261.786804,468.223419 246.487061,469.477020 231.279724,470.010468 
	C215.419510,470.566864 200.148163,474.533905 185.081665,479.143494 
	C144.061127,491.693726 109.900375,515.193176 80.048378,545.479736 
	C78.481140,547.069763 76.743652,548.492004 75.085434,549.992432 
	C74.759315,548.598389 74.148766,547.204590 74.147865,545.810364 
	C74.102760,475.963318 74.109543,406.116272 74.116287,336.269226 
	C74.116333,335.772400 74.193672,335.275543 74.691368,334.210144 
	C74.924294,329.809052 74.700775,325.976471 74.477249,322.143921 
M890.732788,227.299622 
	C883.993103,242.900955 884.894348,258.886841 888.822815,274.844025 
	C896.299927,305.215790 911.719543,331.874725 928.306946,357.955322 
	C930.031982,360.667542 932.298828,360.977997 935.209717,360.399536 
	C958.664185,355.738647 981.486816,349.032135 1003.075806,338.664246 
	C1021.654541,329.741974 1038.336792,318.266418 1049.137695,300.059296 
	C1058.164062,284.843567 1059.802979,268.939423 1051.308960,252.975128 
	C1041.039551,233.673874 1018.127991,226.220642 995.876709,234.750137 
	C990.189941,236.930038 984.846375,240.005585 979.614502,242.539200 
	C977.757751,237.293686 976.221375,231.816010 973.927185,226.676605 
	C965.650391,208.134842 948.111023,196.599777 930.374023,198.221161 
	C911.793152,199.919678 899.025452,210.046753 890.732788,227.299622 
M338.480499,376.006622 
	C339.657257,374.828583 340.884460,373.696320 342.002686,372.465149 
	C349.922363,363.745605 353.205292,353.436890 350.365936,342.060242 
	C345.890564,324.128418 325.403198,317.173645 308.433167,327.333038 
	C306.932556,328.231384 305.429535,329.125671 303.894562,330.041565 
	C302.556824,327.268250 301.620789,324.948303 300.375061,322.808655 
	C293.824036,311.556732 284.375488,305.194458 270.780365,307.064941 
	C260.141296,308.528748 251.205750,316.997986 249.178101,329.580017 
	C248.055710,336.544769 248.295654,344.280914 250.140335,351.066101 
	C255.203415,369.689240 266.854706,384.838440 278.533813,399.775452 
	C279.513519,401.028412 282.412170,401.731567 284.083191,401.321259 
	C289.871948,399.899872 295.587067,398.079071 301.193970,396.036255 
	C314.347168,391.244019 327.047272,385.532227 338.480499,376.006622 
M990.988342,476.514465 
	C1004.215515,484.445709 1017.397888,492.454559 1030.755981,500.158752 
	C1031.809448,500.766357 1034.652222,499.780670 1035.703979,498.646057 
	C1044.958984,488.662170 1054.635376,478.968506 1062.918945,468.212372 
	C1071.220337,457.433167 1076.858643,445.250214 1074.067139,430.765015 
	C1071.955566,419.808319 1065.539917,412.926300 1055.031494,409.929108 
	C1045.384888,407.177765 1036.936401,410.188416 1029.856079,416.793030 
	C1026.675659,419.759918 1024.308716,423.598907 1021.279175,427.411407 
	C1019.631531,425.884613 1018.186951,424.563995 1016.761963,423.222595 
	C1008.979309,415.895996 995.452576,414.032776 986.077698,418.976990 
	C975.301575,424.660126 971.206360,437.078857 972.204468,446.330078 
	C973.563232,458.923370 980.644836,468.418488 990.988342,476.514465 
z"/>
<path fill="#F98685" opacity="1.000000" stroke="none" 
	d="
M74.974716,550.397095 
	C76.743652,548.492004 78.481140,547.069763 80.048378,545.479736 
	C109.900375,515.193176 144.061127,491.693726 185.081665,479.143494 
	C200.148163,474.533905 215.419510,470.566864 231.279724,470.010468 
	C246.487061,469.477020 261.786804,468.223419 276.906647,469.279907 
	C304.477386,471.206451 331.330536,477.290894 356.931610,488.021667 
	C367.960876,492.644623 378.750671,497.838989 389.953461,503.270752 
	C375.631165,545.503052 369.821381,588.328552 373.895386,632.472229 
	C376.097290,656.331238 381.123291,679.522095 390.052002,701.715942 
	C395.128876,714.335327 401.430481,726.462036 407.180542,738.810608 
	C397.926636,736.836792 388.694702,734.752441 379.415253,732.907104 
	C319.073425,720.906921 260.487183,727.560059 203.482880,749.888672 
	C156.642944,768.235901 115.533836,795.523682 79.356461,830.365112 
	C78.038406,831.634399 76.807220,832.993958 75.270325,834.540649 
	C75.005074,834.769836 74.922958,834.419495 74.922958,834.419495 
	C74.682220,832.627136 74.231750,830.834961 74.230812,829.042480 
	C74.183380,738.430725 74.169487,647.819031 74.190514,557.207275 
	C74.191010,555.072021 74.629707,552.936951 74.974716,550.397095 
M280.583374,535.829895 
	C269.021027,529.078979 256.842621,527.818604 244.677444,533.358887 
	C227.209167,541.314392 220.160187,556.702454 217.218307,575.079651 
	C214.576462,573.790161 212.222977,572.660522 209.886185,571.497437 
	C199.587311,566.371216 188.682312,564.260742 177.399841,566.494568 
	C155.287979,570.872498 141.362656,594.064148 146.533737,617.072205 
	C150.797150,636.041748 163.331375,648.525879 179.235703,657.991272 
	C204.364609,672.946777 232.174072,680.226685 260.722473,684.972717 
	C269.113373,686.367737 269.382111,686.088867 273.280182,678.164551 
	C279.083191,666.367493 284.987518,654.590027 290.083893,642.482361 
	C298.907349,621.520020 306.004669,600.071045 304.145844,576.766235 
	C302.783539,559.685913 295.921722,545.721436 280.583374,535.829895 
z"/>
<path fill="#FA7575" opacity="1.000000" stroke="none" 
	d="
M883.069031,617.050598 
	C921.446655,606.670410 956.687561,589.467957 990.201172,568.323364 
	C1023.507141,547.309814 1055.968872,524.870239 1091.182739,507.017334 
	C1119.538208,492.641541 1148.648315,480.036224 1179.617188,471.053680 
	C1180.066528,485.292633 1180.188843,499.581024 1180.199463,513.869446 
	C1180.226196,549.604614 1180.202271,585.339844 1180.102539,621.535461 
	C1154.117676,627.739502 1129.074463,636.191650 1104.446655,645.890442 
	C1060.886719,663.044922 1020.339966,685.972839 980.768677,710.762207 
	C948.034607,731.268433 915.532593,752.171326 882.349121,771.926514 
	C851.935974,790.032410 819.532349,804.000610 785.138916,813.282471 
	C787.676208,810.509216 790.480286,808.159546 793.246460,805.766174 
	C829.874939,774.073425 855.407043,735.090027 870.254272,689.001465 
	C877.800232,665.577576 881.270630,641.474304 883.069031,617.050598 
z"/>
<path fill="#CA0107" opacity="1.000000" stroke="none" 
	d="
M74.531815,871.482788 
	C75.105553,872.162170 75.941833,873.291321 75.944252,874.422302 
	C76.011650,906.030273 75.999016,937.638428 75.966354,969.246521 
	C75.965538,970.035522 75.589897,970.824219 75.045807,971.887207 
	C74.588448,967.520569 74.378471,962.879883 74.375893,958.239014 
	C74.359924,929.470520 74.390556,900.701965 74.531815,871.482788 
z"/>
<path fill="#CA0107" opacity="1.000000" stroke="none" 
	d="
M74.754288,834.830078 
	C74.922958,834.419495 75.005074,834.769836 75.144356,834.884888 
	C75.299797,840.873413 75.315956,846.746887 75.006317,852.791382 
	C74.648895,847.055054 74.617256,841.147888 74.754288,834.830078 
z"/>
<path fill="#EE9C9C" opacity="1.000000" stroke="none" 
	d="
M74.373039,322.580414 
	C74.700775,325.976471 74.924294,329.809052 74.812401,333.747406 
	C74.407600,330.241119 74.338211,326.628998 74.373039,322.580414 
z"/>
<path fill="#FEFDFD" opacity="1.000000" stroke="none" 
	d="
M883.029907,616.579224 
	C881.270630,641.474304 877.800232,665.577576 870.254272,689.001465 
	C855.407043,735.090027 829.874939,774.073425 793.246460,805.766174 
	C790.480286,808.159546 787.676208,810.509216 784.757446,813.177185 
	C779.669495,816.840515 774.724304,820.221191 769.756897,823.568848 
	C723.037720,855.052979 671.476074,869.766846 615.267273,866.738464 
	C560.021790,863.761963 511.022339,843.926392 467.849609,809.449768 
	C443.327026,789.866638 423.815094,766.016602 407.442261,739.025635 
	C401.430481,726.462036 395.128876,714.335327 390.052002,701.715942 
	C381.123291,679.522095 376.097290,656.331238 373.895386,632.472229 
	C369.821381,588.328552 375.631165,545.503052 390.308777,503.369507 
	C396.007538,490.392090 401.238678,477.605377 407.383606,465.274017 
	C423.627930,432.675720 444.516388,403.023254 466.507050,374.134521 
	C492.690704,339.737579 519.471558,305.787201 545.220215,271.069672 
	C566.731079,242.065979 586.479370,211.809692 603.122009,179.682312 
	C611.989929,162.563446 620.269104,145.139603 629.099304,127.276398 
	C631.788635,133.037781 634.187805,138.939346 637.203308,144.507172 
	C650.982666,169.949646 664.046570,195.836136 679.015259,220.565765 
	C707.575623,267.750000 742.029358,310.785339 775.646790,354.396118 
	C804.107239,391.316864 831.417480,429.051697 851.675537,471.349701 
	C864.387573,497.891998 873.791077,525.532227 878.740967,554.537231 
	C882.211548,574.874084 883.738342,595.435059 883.029907,616.579224 
M638.836853,275.674316 
	C635.918152,269.130463 632.999390,262.586639 630.080627,256.042786 
	C629.601685,256.090454 629.122742,256.138092 628.643799,256.185730 
	C626.852600,260.230011 625.072571,264.279297 623.268372,268.317810 
	C604.880127,309.478699 581.566711,347.864502 557.532471,385.886993 
	C534.844299,421.780029 511.815369,457.510406 490.646667,494.296570 
	C469.186432,531.589355 454.889313,571.721619 453.653870,615.359131 
	C452.154510,668.318481 468.775055,714.735291 504.824280,754.075500 
	C564.935730,819.674683 666.288269,828.066956 735.530029,772.155884 
	C781.371948,735.139587 803.499512,686.045044 804.725281,627.521973 
	C805.565186,587.419617 794.846069,549.897827 777.484253,514.025085 
	C758.774414,475.367065 734.772400,439.888458 711.735901,403.824493 
	C685.380859,362.565338 659.533691,321.018036 638.836853,275.674316 
z"/>
<path fill="#FB9492" opacity="1.000000" stroke="none" 
	d="
M892.904846,1080.057861 
	C855.695068,1076.424927 818.960144,1072.519775 782.162231,1069.343628 
	C761.938049,1067.598022 741.619507,1066.605225 721.323059,1066.109741 
	C681.694702,1065.141968 642.048279,1064.082275 602.416382,1064.307739 
	C551.135986,1064.599365 499.938904,1067.409668 448.811066,1071.682373 
	C389.250824,1076.659668 329.983490,1083.902466 270.969604,1093.240356 
	C254.376480,1095.865967 237.947235,1099.517212 221.413132,1102.535278 
	C218.571793,1103.054199 214.496597,1105.328003 213.082291,1101.256714 
	C211.525406,1096.775146 216.161591,1096.069092 219.081329,1094.916870 
	C247.223068,1083.811401 276.594116,1077.050781 306.138550,1071.194336 
	C350.549133,1062.391235 395.363129,1056.033325 440.452545,1051.990845 
	C473.100311,1049.063965 505.804871,1046.369141 538.543884,1044.965454 
	C577.300903,1043.303833 616.143677,1041.945068 654.909851,1042.643921 
	C699.327332,1043.444458 743.726501,1046.235229 788.087219,1048.927368 
	C829.964539,1051.468628 871.555847,1056.892212 912.899048,1064.046875 
	C949.974670,1070.463013 986.809998,1077.969238 1022.541138,1090.057129 
	C1028.208008,1091.974365 1033.791626,1094.210938 1039.210693,1096.735718 
	C1040.583496,1097.375366 1041.175537,1099.691040 1042.126343,1101.236572 
	C1040.484131,1101.940430 1038.695312,1103.479004 1037.222168,1103.220215 
	C1020.672607,1100.313354 1004.235718,1096.723145 987.643799,1094.108521 
	C956.256714,1089.162354 924.788147,1084.733643 892.904846,1080.057861 
z"/>
<path fill="#FDFBFB" opacity="1.000000" stroke="none" 
	d="
M179.538391,976.773132 
	C179.540161,951.492249 179.539780,926.681641 179.549332,901.871033 
	C179.552612,893.363708 181.570663,891.014343 190.169586,889.997009 
	C207.900589,887.899170 225.674500,886.496155 243.354507,890.182983 
	C261.058685,893.874756 270.394135,903.747986 271.319458,919.893921 
	C272.108154,933.655151 265.942078,943.531555 252.656601,949.404907 
	C254.070267,950.006836 254.870026,950.423096 255.716019,950.696228 
	C267.901520,954.631104 275.064667,963.023438 276.406464,975.640137 
	C277.821381,988.943848 273.874176,1000.386719 262.210968,1008.154236 
	C252.436096,1014.664062 241.276657,1016.636169 229.877472,1016.929688 
	C216.733948,1017.268127 203.570465,1017.039612 190.419800,1016.814392 
	C182.561798,1016.679810 179.642654,1013.578918 179.557434,1005.716492 
	C179.454590,996.226501 179.537567,986.734497 179.538391,976.773132 
M214.761581,993.969971 
	C221.839478,993.282715 229.093292,993.329834 235.942734,991.688904 
	C242.032669,990.229980 244.657059,984.509949 244.363388,977.396912 
	C244.091232,970.805298 241.269287,966.148438 234.873016,964.998413 
	C227.190170,963.617065 219.255966,963.633789 211.094864,963.019836 
	C211.094864,973.071533 210.988800,981.730896 211.215942,990.381470 
	C211.247849,991.596619 212.911011,992.768921 214.761581,993.969971 
M217.617020,912.167175 
	C215.527039,912.287354 213.437057,912.407532 211.343582,912.527893 
	C211.343582,922.595520 211.343582,932.023193 211.343582,942.250244 
	C217.075928,941.840820 222.551758,941.821411 227.897888,940.978943 
	C235.478546,939.784363 239.617355,934.329346 239.609238,926.525696 
	C239.601089,918.702698 235.913574,914.129272 228.008362,912.704834 
	C224.926285,912.149475 221.714462,912.314087 217.617020,912.167175 
z"/>
<path fill="#FDF9F9" opacity="1.000000" stroke="none" 
	d="
M824.452271,1008.306274 
	C822.553711,1012.377686 819.271912,1014.139893 814.871826,1014.138916 
	C810.544250,1014.137878 806.214844,1014.315613 801.889587,1014.234009 
	C795.073181,1014.105347 792.252991,1011.285706 792.202942,1004.391968 
	C792.115845,992.407166 792.180725,980.421326 792.170532,968.435913 
	C792.169739,967.457031 792.082703,966.478333 792.018799,965.146362 
	C779.483704,965.146362 767.092468,965.146362 753.958252,965.146362 
	C753.958252,971.331299 753.956909,977.589294 753.958679,983.847290 
	C753.960693,990.672363 754.035767,997.498413 753.949219,1004.322327 
	C753.865234,1010.944641 751.225647,1013.714111 744.566528,1014.020325 
	C739.747986,1014.241882 734.913452,1014.196045 730.087219,1014.149780 
	C725.621338,1014.106873 722.429504,1012.184631 721.110168,1006.840210 
	C720.934204,969.042969 720.887451,932.030396 720.840698,895.017822 
	C722.428162,890.799255 725.589966,888.604797 729.981140,888.560059 
	C735.607605,888.502686 741.281982,888.402283 746.853333,889.040283 
	C752.227356,889.655762 753.954224,892.227600 753.974182,897.998718 
	C754.018921,910.967468 753.988220,923.936584 753.988220,937.348145 
	C766.662842,937.348145 779.167358,937.348145 792.187744,937.348145 
	C792.187744,925.171936 792.190918,913.079773 792.186707,900.987549 
	C792.183044,890.522095 794.467407,888.196472 805.132324,888.206299 
	C809.110291,888.210022 813.261841,887.945251 817.006836,888.983765 
	C819.660278,889.719604 821.763794,892.438416 824.348145,895.000732 
	C824.694763,909.830200 824.806030,923.931030 824.917297,938.031799 
	C824.841614,939.090637 824.765930,940.149414 824.717041,942.054138 
	C824.646606,964.702087 824.549438,986.504211 824.452271,1008.306274 
z"/>
<path fill="#FDFAFA" opacity="1.000000" stroke="none" 
	d="
M529.063721,896.184448 
	C529.063354,908.450928 529.063354,920.241577 529.063354,931.210571 
	C535.238586,928.100403 541.145081,923.882874 547.716675,922.049316 
	C567.251465,916.598816 583.796631,927.812195 585.043152,948.009216 
	C586.231323,967.259766 585.695618,986.624878 585.635986,1005.938843 
	C585.619873,1011.140259 582.654846,1013.643738 577.307495,1013.987915 
	C573.655640,1014.223083 569.982117,1014.187378 566.318848,1014.167297 
	C557.547424,1014.119324 554.951050,1011.542969 554.942566,1002.901917 
	C554.929749,989.909302 554.955994,976.916748 554.952026,963.924133 
	C554.951538,962.259644 554.934814,960.590515 554.814453,958.931519 
	C554.255310,951.223572 551.302490,947.416809 545.458374,946.793579 
	C538.002991,945.998535 531.557312,950.137634 529.817078,957.051880 
	C529.296692,959.119507 529.170593,961.329590 529.161377,963.475647 
	C529.102478,977.134277 529.164124,990.793457 529.108521,1004.452148 
	C529.079834,1011.487915 526.576416,1013.987854 519.435852,1014.184326 
	C515.608032,1014.289673 511.773499,1014.231750 507.943542,1014.162170 
	C501.051392,1014.037109 498.276581,1011.290405 498.268860,1004.382629 
	C498.238586,977.397949 498.269531,950.413269 498.269409,923.428589 
	C498.269379,913.600952 498.218231,903.773254 498.244049,893.945679 
	C498.259796,887.956421 500.355652,885.299194 506.311157,884.634766 
	C510.756805,884.138672 515.311768,884.003235 519.767212,884.354004 
	C527.001648,884.923523 528.889709,887.492981 529.063721,896.184448 
z"/>
<path fill="#FDFAFA" opacity="1.000000" stroke="none" 
	d="
M992.225952,966.350647 
	C993.046143,955.582397 995.553406,945.871643 1002.168457,937.607056 
	C1013.134399,923.906128 1034.777222,918.103394 1053.737061,923.766602 
	C1071.201050,928.982971 1082.885376,943.076904 1084.035156,961.784851 
	C1084.527832,969.799927 1084.279175,978.212097 1082.378174,985.955383 
	C1077.151489,1007.244385 1057.827148,1019.562622 1034.867065,1017.548706 
	C1021.024109,1016.334534 1008.855469,1011.955444 1000.443054,1000.151001 
	C994.408752,991.683594 992.731628,981.889771 992.174377,971.802795 
	C992.082703,970.143188 992.178955,968.473206 992.225952,966.350647 
M1023.991516,959.815063 
	C1022.356750,968.623718 1022.437256,977.319336 1025.846191,985.757202 
	C1028.058105,991.232544 1032.141235,994.165833 1038.080322,994.347046 
	C1044.236694,994.534851 1048.824219,991.789124 1051.058472,986.137451 
	C1055.317383,975.364685 1055.460693,964.375793 1050.906616,953.662170 
	C1048.119263,947.104675 1041.655518,944.501099 1034.753540,946.346741 
	C1028.236206,948.089478 1025.737183,953.151550 1023.991516,959.815063 
z"/>
<path fill="#FDFAFB" opacity="1.000000" stroke="none" 
	d="
M475.995209,887.981567 
	C477.153168,888.048889 478.311127,888.173584 479.469116,888.174438 
	C488.722961,888.181274 491.130463,890.611267 491.205750,900.064819 
	C491.323822,914.889954 489.795044,916.428101 475.141449,916.334473 
	C470.001801,916.301697 464.861755,916.329346 459.334625,916.329346 
	C459.205322,918.012634 459.002472,919.434021 459.000824,920.855652 
	C458.969269,948.162170 458.967590,975.468628 458.945007,1002.775146 
	C458.937744,1011.575684 456.577911,1014.006714 447.757141,1014.264343 
	C443.764038,1014.380981 439.758026,1014.573059 435.774414,1014.383240 
	C428.715881,1014.046936 426.019287,1011.091431 426.015686,1003.959167 
	C426.002289,977.651550 426.023773,951.343872 426.031921,925.036255 
	C426.032745,922.379272 426.032074,919.722229 426.032074,916.364136 
	C418.434540,916.364136 411.017212,916.375366 403.599915,916.361023 
	C395.789703,916.345886 393.443542,914.221313 393.184235,906.429565 
	C393.069122,902.970337 392.870880,899.278503 393.917633,896.088379 
	C394.794830,893.415039 397.426453,891.317383 399.997620,888.739624 
	C404.699768,888.404968 408.685120,888.217041 412.671265,888.198914 
	C433.779144,888.102966 454.887207,888.049744 475.995209,887.981567 
z"/>
<path fill="#FDF9F9" opacity="1.000000" stroke="none" 
	d="
M353.747192,1012.880127 
	C341.962372,1016.935913 330.267120,1017.750671 318.398773,1015.856873 
	C300.049652,1012.929016 287.614929,1000.745300 283.975006,982.338623 
	C281.451233,969.576294 282.494720,957.228271 287.766357,945.209717 
	C300.169769,916.931824 339.226990,914.870911 356.946228,930.166809 
	C365.653168,937.683044 368.941498,947.622009 367.766296,958.899109 
	C366.867432,967.524048 361.626556,973.125366 353.325836,974.672668 
	C344.210480,976.371887 334.884613,977.002136 325.628021,977.854614 
	C321.844910,978.203064 318.002930,977.912231 314.175781,977.912231 
	C314.559235,985.816895 319.105438,991.062256 327.245941,992.912598 
	C337.121429,995.157288 346.401886,992.786804 355.396423,988.819702 
	C360.234650,986.685730 362.603577,987.482666 364.898834,992.240540 
	C368.428040,999.556274 366.765900,1005.535522 359.890503,1009.817261 
	C358.063477,1010.955139 356.045715,1011.786621 353.747192,1012.880127 
M330.181854,942.080750 
	C319.509003,942.201843 313.079346,949.363220 313.827179,961.120117 
	C320.211609,960.739990 326.680481,960.797546 332.972260,959.770569 
	C335.627594,959.337219 339.490051,956.978027 339.973785,954.850769 
	C340.622040,951.999817 339.101166,948.162415 337.397675,945.447449 
	C336.304504,943.705139 333.205322,943.221313 330.181854,942.080750 
z"/>
<path fill="#FDF9F9" opacity="1.000000" stroke="none" 
	d="
M623.614380,923.562134 
	C637.993530,919.223389 651.623413,919.591614 664.490417,927.183960 
	C675.485901,933.671814 681.413147,947.389465 678.900146,959.833801 
	C677.317993,967.668030 672.490417,972.908142 664.945312,974.524597 
	C656.698853,976.291321 648.198975,976.983582 639.774414,977.767334 
	C635.172241,978.195557 630.497559,977.843994 625.840332,977.843994 
	C626.206726,985.748962 631.280945,991.260498 639.670654,992.788757 
	C649.020325,994.491760 657.862793,992.430176 666.376770,988.559021 
	C671.849548,986.070618 674.990662,987.476013 676.860840,993.238708 
	C679.274475,1000.676086 677.763733,1006.278259 670.708008,1009.710266 
	C651.470032,1019.067627 631.715271,1020.403320 613.023010,1008.859253 
	C597.251831,999.119202 593.849731,982.944763 594.386841,965.680359 
	C594.515259,961.553528 595.130859,957.348816 596.198669,953.360962 
	C600.077087,938.875977 608.830444,928.665405 623.614380,923.562134 
M634.152649,943.296631 
	C627.466980,947.216797 624.392822,953.350403 625.640686,961.104797 
	C631.834595,960.706238 638.107849,960.436584 644.351440,959.851196 
	C648.169739,959.493225 651.660095,958.169373 652.093262,953.581360 
	C652.546692,948.779053 650.690063,944.651489 646.058411,943.314575 
	C642.594055,942.314575 638.629822,943.046204 634.152649,943.296631 
z"/>
<path fill="#FDF9F9" opacity="1.000000" stroke="none" 
	d="
M836.336243,953.530518 
	C845.436279,919.794678 882.110901,915.439758 902.162292,926.110107 
	C913.384216,932.081787 920.363159,945.020874 919.089172,957.728699 
	C918.153992,967.057800 914.037109,972.542175 904.852905,974.775696 
	C898.110962,976.415283 891.104370,977.192444 884.167297,977.735291 
	C878.052063,978.213745 871.869751,977.835388 865.164551,977.835388 
	C866.355408,984.853882 869.435608,989.721924 875.882202,991.940369 
	C885.213806,995.151733 894.297180,993.624939 903.179688,990.068726 
	C910.949219,986.958069 912.587585,987.085999 915.103882,991.368591 
	C918.583069,997.290039 917.981262,1004.461792 913.032227,1008.154053 
	C909.761414,1010.594299 905.966797,1012.753845 902.071777,1013.862854 
	C885.331482,1018.629211 868.645203,1019.012878 853.415833,1009.282654 
	C837.607910,999.182739 833.711670,983.302795 834.471802,965.757812 
	C834.643555,961.793640 835.604431,957.863708 836.336243,953.530518 
M864.662292,959.581421 
	C865.278748,960.005859 865.906067,960.812744 866.510071,960.795654 
	C872.631531,960.622314 878.792908,960.677185 884.856201,959.947083 
	C891.551208,959.140747 894.306152,953.631470 890.581360,948.026367 
	C888.877747,945.462585 885.402405,943.153198 882.373535,942.563904 
	C872.756409,940.692627 866.848572,946.431213 864.662292,959.581421 
z"/>
<path fill="#FDFAFA" opacity="1.000000" stroke="none" 
	d="
M928.572632,928.683716 
	C930.392151,924.631409 933.969177,923.489075 937.936462,923.280701 
	C941.256653,923.106323 944.605835,923.099304 947.922363,923.318542 
	C954.741638,923.769287 956.912720,926.167175 957.122498,933.108948 
	C957.166077,934.550903 957.128845,935.995178 957.128845,938.874146 
	C959.257324,935.616028 960.548828,933.441223 962.031250,931.405334 
	C967.435547,923.983337 974.743408,920.898804 983.807495,922.301392 
	C989.800659,923.228699 992.292725,926.067688 992.162537,932.112610 
	C992.066406,936.581116 991.659058,941.080261 990.920044,945.486938 
	C990.193359,949.819763 987.446655,951.421875 982.910217,950.689636 
	C969.271790,948.487976 960.823120,954.614441 959.750854,968.546021 
	C958.833313,980.466919 959.320618,992.495483 959.171509,1004.476135 
	C959.067505,1012.832092 956.854187,1015.076904 948.471985,1015.243103 
	C944.644653,1015.319031 940.812256,1015.354065 936.986633,1015.247803 
	C933.163940,1015.141541 930.222534,1013.617065 928.947205,1008.830322 
	C928.708008,981.588745 928.640320,955.136230 928.572632,928.683716 
z"/>
<path fill="#CB0003" opacity="1.000000" stroke="none" 
	d="
M720.460693,895.129272 
	C720.887451,932.030396 720.934204,969.042969 720.940186,1006.521851 
	C720.269897,1005.837769 719.093567,1004.688904 719.090454,1003.536804 
	C718.995422,968.296021 719.007996,933.054810 719.062134,897.813782 
	C719.063477,896.955566 719.726318,896.098389 720.460693,895.129272 
z"/>
<path fill="#CE0001" opacity="1.000000" stroke="none" 
	d="
M928.193787,928.959473 
	C928.640320,955.136230 928.708008,981.588745 928.766418,1008.508667 
	C928.174988,1007.786133 927.089783,1006.598083 927.084961,1005.405762 
	C926.987854,980.946594 927.005249,956.486877 927.049377,932.027344 
	C927.051025,931.096191 927.548523,930.165894 928.193787,928.959473 
z"/>
<path fill="#D40002" opacity="1.000000" stroke="none" 
	d="
M475.699280,887.687866 
	C454.887207,888.049744 433.779144,888.102966 412.671265,888.198914 
	C408.685120,888.217041 404.699768,888.404968 400.214691,888.529175 
	C401.018799,888.032227 402.320679,887.079041 403.625916,887.074402 
	C427.072815,886.991699 450.520111,887.021606 473.967316,887.046387 
	C474.446136,887.046875 474.924683,887.273193 475.699280,887.687866 
z"/>
<path fill="#C70106" opacity="1.000000" stroke="none" 
	d="
M824.828491,1008.028870 
	C824.549438,986.504211 824.646606,964.702087 824.837769,942.437378 
	C825.286377,943.188171 825.946106,944.400635 825.950134,945.615234 
	C826.015381,965.229980 826.010010,984.845032 825.964172,1004.459900 
	C825.961609,1005.557678 825.469116,1006.654297 824.828491,1008.028870 
z"/>
<path fill="#C70106" opacity="1.000000" stroke="none" 
	d="
M825.230347,937.747559 
	C824.806030,923.931030 824.694763,909.830200 824.551636,895.232117 
	C825.002014,895.549438 825.906677,896.365784 825.903503,897.178528 
	C825.851013,910.607117 825.684448,924.035156 825.230347,937.747559 
z"/>
<path fill="#DD1616" opacity="1.000000" stroke="none" 
	d="
M890.875549,226.947784 
	C899.025452,210.046753 911.793152,199.919678 930.374023,198.221161 
	C948.111023,196.599777 965.650391,208.134842 973.927185,226.676605 
	C976.221375,231.816010 977.757751,237.293686 979.614502,242.539200 
	C984.846375,240.005585 990.189941,236.930038 995.876709,234.750137 
	C1018.127991,226.220642 1041.039551,233.673874 1051.308960,252.975128 
	C1059.802979,268.939423 1058.164062,284.843567 1049.137695,300.059296 
	C1038.336792,318.266418 1021.654541,329.741974 1003.075806,338.664246 
	C981.486816,349.032135 958.664185,355.738647 935.209717,360.399536 
	C932.298828,360.977997 930.031982,360.667542 928.306946,357.955322 
	C911.719543,331.874725 896.299927,305.215790 888.822815,274.844025 
	C884.894348,258.886841 883.993103,242.900955 890.875549,226.947784 
z"/>
<path fill="#FDD5D5" opacity="1.000000" stroke="none" 
	d="
M338.226440,376.259644 
	C327.047272,385.532227 314.347168,391.244019 301.193970,396.036255 
	C295.587067,398.079071 289.871948,399.899872 284.083191,401.321259 
	C282.412170,401.731567 279.513519,401.028412 278.533813,399.775452 
	C266.854706,384.838440 255.203415,369.689240 250.140335,351.066101 
	C248.295654,344.280914 248.055710,336.544769 249.178101,329.580017 
	C251.205750,316.997986 260.141296,308.528748 270.780365,307.064941 
	C284.375488,305.194458 293.824036,311.556732 300.375061,322.808655 
	C301.620789,324.948303 302.556824,327.268250 303.894562,330.041565 
	C305.429535,329.125671 306.932556,328.231384 308.433167,327.333038 
	C325.403198,317.173645 345.890564,324.128418 350.365936,342.060242 
	C353.205292,353.436890 349.922363,363.745605 342.002686,372.465149 
	C340.884460,373.696320 339.657257,374.828583 338.226440,376.259644 
z"/>
<path fill="#FDD4D4" opacity="1.000000" stroke="none" 
	d="
M990.728088,476.268921 
	C980.644836,468.418488 973.563232,458.923370 972.204468,446.330078 
	C971.206360,437.078857 975.301575,424.660126 986.077698,418.976990 
	C995.452576,414.032776 1008.979309,415.895996 1016.761963,423.222595 
	C1018.186951,424.563995 1019.631531,425.884613 1021.279175,427.411407 
	C1024.308716,423.598907 1026.675659,419.759918 1029.856079,416.793030 
	C1036.936401,410.188416 1045.384888,407.177765 1055.031494,409.929108 
	C1065.539917,412.926300 1071.955566,419.808319 1074.067139,430.765015 
	C1076.858643,445.250214 1071.220337,457.433167 1062.918945,468.212372 
	C1054.635376,478.968506 1044.958984,488.662170 1035.703979,498.646057 
	C1034.652222,499.780670 1031.809448,500.766357 1030.755981,500.158752 
	C1017.397888,492.454559 1004.215515,484.445709 990.728088,476.268921 
z"/>
<path fill="#DD1616" opacity="1.000000" stroke="none" 
	d="
M280.904541,536.002563 
	C295.921722,545.721436 302.783539,559.685913 304.145844,576.766235 
	C306.004669,600.071045 298.907349,621.520020 290.083893,642.482361 
	C284.987518,654.590027 279.083191,666.367493 273.280182,678.164551 
	C269.382111,686.088867 269.113373,686.367737 260.722473,684.972717 
	C232.174072,680.226685 204.364609,672.946777 179.235703,657.991272 
	C163.331375,648.525879 150.797150,636.041748 146.533737,617.072205 
	C141.362656,594.064148 155.287979,570.872498 177.399841,566.494568 
	C188.682312,564.260742 199.587311,566.371216 209.886185,571.497437 
	C212.222977,572.660522 214.576462,573.790161 217.218307,575.079651 
	C220.160187,556.702454 227.209167,541.314392 244.677444,533.358887 
	C256.842621,527.818604 269.021027,529.078979 280.904541,536.002563 
z"/>
<path fill="#DE1515" opacity="1.000000" stroke="none" 
	d="
M638.972900,276.027100 
	C659.533691,321.018036 685.380859,362.565338 711.735901,403.824493 
	C734.772400,439.888458 758.774414,475.367065 777.484253,514.025085 
	C794.846069,549.897827 805.565186,587.419617 804.725281,627.521973 
	C803.499512,686.045044 781.371948,735.139587 735.530029,772.155884 
	C666.288269,828.066956 564.935730,819.674683 504.824280,754.075500 
	C468.775055,714.735291 452.154510,668.318481 453.653870,615.359131 
	C454.889313,571.721619 469.186432,531.589355 490.646667,494.296570 
	C511.815369,457.510406 534.844299,421.780029 557.532471,385.886993 
	C581.566711,347.864502 604.880127,309.478699 623.268372,268.317810 
	C625.072571,264.279297 626.852600,260.230011 628.643799,256.185730 
	C629.122742,256.138092 629.601685,256.090454 630.080627,256.042786 
	C632.999390,262.586639 635.918152,269.130463 638.972900,276.027100 
M605.384827,355.844421 
	C585.407410,387.522064 565.183777,419.047913 545.529724,450.924957 
	C529.518555,476.893585 515.001587,503.688629 504.330353,532.397644 
	C492.466370,564.315613 485.259399,596.931091 490.212311,631.196838 
	C492.951630,650.148254 498.960419,667.822998 513.006165,681.736450 
	C518.315796,686.996033 524.485535,691.170837 532.062866,691.792297 
	C534.989807,692.032410 538.755676,690.678955 540.867126,688.696594 
	C541.974060,687.657227 541.044983,683.286804 539.819763,681.102600 
	C524.340210,653.507751 521.251831,623.788940 524.333130,592.984070 
	C527.828674,558.038879 537.678284,524.632690 550.555542,492.216431 
	C566.156128,452.944824 583.028992,414.179535 599.223267,375.142059 
	C601.814453,368.895844 603.736877,362.372223 606.418030,355.875031 
	C606.322876,355.693420 606.227661,355.511841 606.132507,355.330261 
	C606.116211,355.572968 606.099854,355.815704 605.384827,355.844421 
M720.297668,743.790466 
	C741.708801,726.981750 761.145691,698.190063 762.239685,680.656677 
	C735.780273,721.885498 698.852173,748.726379 654.630981,766.469055 
	C679.198059,766.826416 700.519409,758.543579 720.297668,743.790466 
z"/>
<path fill="#D0141B" opacity="1.000000" stroke="none" 
	d="
M214.290344,993.965515 
	C212.911011,992.768921 211.247849,991.596619 211.215942,990.381470 
	C210.988800,981.730896 211.094864,973.071533 211.094864,963.019836 
	C219.255966,963.633789 227.190170,963.617065 234.873016,964.998413 
	C241.269287,966.148438 244.091232,970.805298 244.363388,977.396912 
	C244.657059,984.509949 242.032669,990.229980 235.942734,991.688904 
	C229.093292,993.329834 221.839478,993.282715 214.290344,993.965515 
z"/>
<path fill="#D1161C" opacity="1.000000" stroke="none" 
	d="
M218.089386,912.158936 
	C221.714462,912.314087 224.926285,912.149475 228.008362,912.704834 
	C235.913574,914.129272 239.601089,918.702698 239.609238,926.525696 
	C239.617355,934.329346 235.478546,939.784363 227.897888,940.978943 
	C222.551758,941.821411 217.075928,941.840820 211.343582,942.250244 
	C211.343582,932.023193 211.343582,922.595520 211.343582,912.527893 
	C213.437057,912.407532 215.527039,912.287354 218.089386,912.158936 
z"/>
<path fill="#D0141B" opacity="1.000000" stroke="none" 
	d="
M1024.069580,959.407227 
	C1025.737183,953.151550 1028.236206,948.089478 1034.753540,946.346741 
	C1041.655518,944.501099 1048.119263,947.104675 1050.906616,953.662170 
	C1055.460693,964.375793 1055.317383,975.364685 1051.058472,986.137451 
	C1048.824219,991.789124 1044.236694,994.534851 1038.080322,994.347046 
	C1032.141235,994.165833 1028.058105,991.232544 1025.846191,985.757202 
	C1022.437256,977.319336 1022.356750,968.623718 1024.069580,959.407227 
z"/>
<path fill="#D3191F" opacity="1.000000" stroke="none" 
	d="
M330.593597,942.127075 
	C333.205322,943.221313 336.304504,943.705139 337.397675,945.447449 
	C339.101166,948.162415 340.622040,951.999817 339.973785,954.850769 
	C339.490051,956.978027 335.627594,959.337219 332.972260,959.770569 
	C326.680481,960.797546 320.211609,960.739990 313.827179,961.120117 
	C313.079346,949.363220 319.509003,942.201843 330.593597,942.127075 
z"/>
<path fill="#D3181E" opacity="1.000000" stroke="none" 
	d="
M634.520386,943.151672 
	C638.629822,943.046204 642.594055,942.314575 646.058411,943.314575 
	C650.690063,944.651489 652.546692,948.779053 652.093262,953.581360 
	C651.660095,958.169373 648.169739,959.493225 644.351440,959.851196 
	C638.107849,960.436584 631.834595,960.706238 625.640686,961.104797 
	C624.392822,953.350403 627.466980,947.216797 634.520386,943.151672 
z"/>
<path fill="#D3171D" opacity="1.000000" stroke="none" 
	d="
M864.715515,959.134644 
	C866.848572,946.431213 872.756409,940.692627 882.373535,942.563904 
	C885.402405,943.153198 888.877747,945.462585 890.581360,948.026367 
	C894.306152,953.631470 891.551208,959.140747 884.856201,959.947083 
	C878.792908,960.677185 872.631531,960.622314 866.510071,960.795654 
	C865.906067,960.812744 865.278748,960.005859 864.715515,959.134644 
z"/>
<path fill="#FDF9F9" opacity="1.000000" stroke="none" 
	d="
M605.968445,355.976868 
	C603.736877,362.372223 601.814453,368.895844 599.223267,375.142059 
	C583.028992,414.179535 566.156128,452.944824 550.555542,492.216431 
	C537.678284,524.632690 527.828674,558.038879 524.333130,592.984070 
	C521.251831,623.788940 524.340210,653.507751 539.819763,681.102600 
	C541.044983,683.286804 541.974060,687.657227 540.867126,688.696594 
	C538.755676,690.678955 534.989807,692.032410 532.062866,691.792297 
	C524.485535,691.170837 518.315796,686.996033 513.006165,681.736450 
	C498.960419,667.822998 492.951630,650.148254 490.212311,631.196838 
	C485.259399,596.931091 492.466370,564.315613 504.330353,532.397644 
	C515.001587,503.688629 529.518555,476.893585 545.529724,450.924957 
	C565.183777,419.047913 585.407410,387.522064 605.704590,355.932159 
	C606.024414,356.019897 605.968445,355.976868 605.968445,355.976868 
z"/>
<path fill="#FDF2F2" opacity="1.000000" stroke="none" 
	d="
M720.013794,744.002563 
	C700.519409,758.543579 679.198059,766.826416 654.630981,766.469055 
	C698.852173,748.726379 735.780273,721.885498 762.239685,680.656677 
	C761.145691,698.190063 741.708801,726.981750 720.013794,744.002563 
z"/>
<path fill="#FDF9F9" opacity="1.000000" stroke="none" 
	d="
M606.053955,356.039154 
	C606.099854,355.815704 606.116211,355.572968 606.132446,355.330261 
	C606.227661,355.511841 606.322876,355.693420 606.193237,355.925964 
	C605.968445,355.976868 606.024414,356.019897 606.053955,356.039154 
z"/>
</svg>